<svg width="48" height="48" viewBox="0 0 48 48" fill="none" xmlns="http://www.w3.org/2000/svg">
<path d="M24 48C37.2548 48 48 37.2548 48 24C48 10.7452 37.2548 0 24 0C10.7452 0 0 10.7452 0 24C0 37.2548 10.7452 48 24 48Z" fill="#473080"/>
<path d="M24 44.5C35.3218 44.5 44.5 35.3218 44.5 24C44.5 12.6782 35.3218 3.5 24 3.5C12.6782 3.5 3.5 12.6782 3.5 24C3.5 35.3218 12.6782 44.5 24 44.5Z" fill="#473080"/>
<path d="M22.3701 8.11572H13.0376C12.6853 8.11572 12.3994 8.40133 12.3994 8.75395V18.0864C12.3994 18.4388 12.685 18.7247 13.0376 18.7247H22.3701C22.7225 18.7247 23.0083 18.439 23.0083 18.0864V8.75395C23.0083 8.4016 22.7225 8.11572 22.3701 8.11572Z" fill="#473080"/>
<path d="M22.3701 20.3196H13.0376C12.6853 20.3196 12.3994 20.6053 12.3994 20.9579V30.2903C12.3994 30.6427 12.685 30.9286 13.0376 30.9286H22.3701C22.7225 30.9286 23.0083 30.643 23.0083 30.2903V20.9579C23.0083 20.6053 22.7225 20.3196 22.3701 20.3196Z" fill="#473080"/>
<path d="M22.3701 32.5235H13.0376C12.6853 32.5235 12.3994 32.8091 12.3994 33.1614V42.4939C12.3994 42.8463 12.685 43.1319 13.0376 43.1319H22.3701C22.7225 43.1319 23.0083 42.8463 23.0083 42.4939V33.1614C23.0081 32.8093 22.7225 32.5235 22.3701 32.5235Z" fill="#473080"/>
<path d="M34.784 29.3746C36.8552 27.3034 36.8552 23.9453 34.784 21.8741C32.7128 19.8029 29.3547 19.8029 27.2835 21.8741C25.2123 23.9453 25.2123 27.3034 27.2835 29.3746C29.3547 31.4458 32.7128 31.4458 34.784 29.3746Z" fill="#473080"/>
<path d="M31.0335 18.7158C33.963 18.7158 36.3379 16.3409 36.3379 13.4113C36.3379 10.4818 33.963 8.10687 31.0335 8.10687C28.1039 8.10687 25.729 10.4818 25.729 13.4113C25.729 16.3409 28.1039 18.7158 31.0335 18.7158Z" fill="#473080"/>
<path d="M31.0335 43.1324C33.963 43.1324 36.3379 40.7575 36.3379 37.8279C36.3379 34.8984 33.963 32.5235 31.0335 32.5235C28.1039 32.5235 25.729 34.8984 25.729 37.8279C25.729 40.7575 28.1039 43.1324 31.0335 43.1324Z" fill="#473080"/>
<path d="M22.3969 16.9H13.072C12.72 16.9 12.4346 16.6146 12.4346 16.2623V6.93769C12.4346 6.58563 12.72 6.29999 13.072 6.29999H22.3969C22.7489 6.29999 23.0346 6.58537 23.0346 6.93769V16.2625C23.0346 16.6146 22.7489 16.9 22.3969 16.9Z" fill="#EF5A9D"/>
<path d="M22.3969 15.55H13.072C12.72 15.55 12.4346 15.2591 12.4346 14.9V16.25C12.4346 16.6089 12.72 16.9 13.072 16.9H22.3969C22.7489 16.9 23.0346 16.6091 23.0346 16.25V14.9C23.0346 15.2588 22.7489 15.55 22.3969 15.55Z" fill="#EF5A9D"/>
<path d="M18.8381 10.4H14.9305C14.4907 10.4 14.1343 10.0419 14.1343 9.59999C14.1343 9.15809 14.4907 8.79999 14.9305 8.79999H18.8381C19.2779 8.79999 19.6343 9.15809 19.6343 9.59999C19.6343 10.0419 19.2779 10.4 18.8381 10.4Z" fill="#FEDE3A"/>
<path d="M20.438 13.8H14.9306C14.4907 13.8 14.1343 13.4419 14.1343 13C14.1343 12.5581 14.4907 12.2 14.9306 12.2H20.438C20.8778 12.2 21.2343 12.5581 21.2343 13C21.2343 13.4419 20.8778 13.8 20.438 13.8Z" fill="#FEDE3A"/>
<path d="M22.3969 29.1H13.072C12.72 29.1 12.4346 28.8146 12.4346 28.4623V19.1377C12.4346 18.7856 12.72 18.5 13.072 18.5H22.3969C22.7489 18.5 23.0346 18.7854 23.0346 19.1377V28.4623C23.0346 28.8146 22.7489 29.1 22.3969 29.1Z" fill="#1CAEE4"/>
<path d="M22.3969 27.75H13.072C12.72 27.75 12.4346 27.4591 12.4346 27.1V28.45C12.4346 28.8089 12.72 29.1 13.072 29.1H22.3969C22.7489 29.1 23.0346 28.8091 23.0346 28.45V27.1C23.0346 27.4591 22.7489 27.75 22.3969 27.75Z" fill="#1CAEE4"/>
<path d="M18.8381 22.6H14.9305C14.4907 22.6 14.1343 22.2419 14.1343 21.8C14.1343 21.3581 14.4907 21 14.9305 21H18.8381C19.2779 21 19.6343 21.3581 19.6343 21.8C19.6343 22.2419 19.2779 22.6 18.8381 22.6Z" fill="#FEDE3A"/>
<path d="M20.4382 26H14.9306C14.4907 26 14.1343 25.6419 14.1343 25.2C14.1343 24.7581 14.4907 24.4 14.9306 24.4H20.438C20.8778 24.4 21.2343 24.7581 21.2343 25.2C21.2343 25.6419 20.8781 26 20.4382 26Z" fill="#FEDE3A"/>
<path d="M22.3971 41.3H13.0723C12.7202 41.3 12.4346 41.0146 12.4346 40.6626V31.3377C12.4346 30.9857 12.72 30.7 13.0723 30.7H22.3971C22.7492 30.7 23.0346 30.9854 23.0346 31.3377V40.6626C23.0346 41.0146 22.7492 41.3 22.3971 41.3Z" fill="#FEDE3A"/>
<path d="M22.3971 39.9497H13.0723C12.7202 39.9497 12.4346 39.6588 12.4346 39.3V40.65C12.4346 41.0088 12.72 41.3 13.0723 41.3H22.3971C22.7492 41.3 23.0346 41.0091 23.0346 40.65V39.3C23.0346 39.6588 22.7492 39.9497 22.3971 39.9497Z" fill="#FEDE3A"/>
<path d="M18.8381 34.8H14.9305C14.4907 34.8 14.1343 34.4419 14.1343 34C14.1343 33.5581 14.4907 33.2 14.9305 33.2H18.8381C19.2779 33.2 19.6343 33.5581 19.6343 34C19.634 34.4419 19.2776 34.8 18.8381 34.8Z" fill="#EF5A9D"/>
<path d="M20.4377 38.2H14.9306C14.4907 38.2 14.1343 37.8419 14.1343 37.4C14.1343 36.9581 14.4907 36.6 14.9306 36.6H20.438C20.8778 36.6 21.2343 36.9581 21.2343 37.4C21.234 37.8419 20.8776 38.2 20.4377 38.2Z" fill="#EF5A9D"/>
<path d="M31.0349 29.1C33.962 29.1 36.3349 26.7271 36.3349 23.8C36.3349 20.8729 33.962 18.5 31.0349 18.5C28.1078 18.5 25.7349 20.8729 25.7349 23.8C25.7349 26.7271 28.1078 29.1 31.0349 29.1Z" fill="white"/>
<path d="M33.3383 26.3886C33.342 26.3842 33.3456 26.3795 33.3493 26.3748C33.3537 26.3693 33.3578 26.3636 33.3623 26.3582C33.3664 26.3527 33.3703 26.3472 33.3745 26.3418C33.3776 26.3374 33.3807 26.3329 33.3838 26.3285C33.3885 26.3217 33.3932 26.315 33.3976 26.3082C33.3984 26.3069 33.3992 26.3056 33.4 26.3043C33.6122 25.9727 33.5737 25.5273 33.284 25.2373L32.2462 24.1996L33.284 23.162C33.2936 23.1523 33.303 23.1425 33.3121 23.1323C33.3152 23.1289 33.318 23.1256 33.3212 23.1222C33.3271 23.1154 33.3329 23.1087 33.3386 23.1019C33.3422 23.0975 33.3456 23.0933 33.349 23.0889C33.3537 23.0832 33.3581 23.0772 33.3625 23.0715C33.3664 23.0663 33.3703 23.0608 33.3742 23.0556C33.3776 23.0509 33.3807 23.0462 33.3841 23.0416C33.3885 23.0351 33.3932 23.0286 33.3974 23.0218C33.3984 23.0202 33.3995 23.0184 33.4005 23.0168C33.6119 22.6855 33.5734 22.2403 33.2837 21.9508C32.9492 21.6164 32.4067 21.6164 32.0722 21.9508L31.0345 22.9885L29.997 21.9508C29.6625 21.6164 29.12 21.6164 28.7855 21.9508C28.4955 22.2408 28.457 22.6868 28.6698 23.0184C28.6705 23.0194 28.6711 23.0205 28.6718 23.0215C28.6763 23.0286 28.6809 23.0353 28.6856 23.0421C28.6888 23.0465 28.6916 23.0509 28.6947 23.0551C28.6989 23.0608 28.7028 23.0663 28.7072 23.0717C28.7114 23.0772 28.7155 23.0826 28.72 23.0884C28.7236 23.093 28.7272 23.0975 28.7311 23.1021C28.7366 23.1089 28.7426 23.1154 28.7483 23.1222C28.7514 23.1256 28.7543 23.1292 28.7574 23.1326C28.7665 23.1425 28.7759 23.1523 28.7855 23.1622L29.823 24.1999L28.7855 25.2375C28.4952 25.5278 28.457 25.9743 28.6703 26.3059C28.6708 26.3067 28.6711 26.3074 28.6716 26.308C28.6763 26.3152 28.6812 26.3223 28.6859 26.3293L28.6945 26.3418C28.6986 26.3475 28.7028 26.3532 28.707 26.3587C28.7111 26.3641 28.7153 26.3696 28.7197 26.3753C28.7233 26.38 28.7272 26.3847 28.7311 26.3894C28.7366 26.3959 28.7423 26.4024 28.7478 26.4089C28.7509 26.4125 28.754 26.4162 28.7572 26.4195C28.7663 26.4294 28.7756 26.4393 28.7852 26.4492C29.1197 26.7836 29.6623 26.7836 29.9967 26.4492L31.0342 25.4115L32.072 26.4492C32.4064 26.7836 32.949 26.7836 33.2834 26.4492C33.2931 26.4396 33.3024 26.4297 33.3115 26.4195C33.3147 26.4162 33.3178 26.4125 33.3209 26.4089C33.3271 26.4018 33.3329 26.3953 33.3383 26.3886Z" fill="white"/>
<path d="M32.2461 23.7L33.2838 22.6623C33.6183 22.3278 33.6183 21.7853 33.2838 21.4509C32.9494 21.1164 32.4068 21.1164 32.0724 21.4509L31.0347 22.4886L29.997 21.4509C29.6625 21.1164 29.12 21.1164 28.7855 21.4509C28.4511 21.7853 28.4511 22.3278 28.7855 22.6623L29.8232 23.7L28.7855 24.7377C28.4511 25.0722 28.4511 25.6147 28.7855 25.9492C29.12 26.2836 29.6625 26.2836 29.997 25.9492L31.0347 24.9115L32.0724 25.9492C32.4068 26.2836 32.9494 26.2836 33.2838 25.9492C33.6183 25.6147 33.6183 25.0722 33.2838 24.7377L32.2461 23.7Z" fill="#EF5A9D"/>
<path d="M33.3146 25.097C32.9767 25.4349 32.4286 25.4349 32.0907 25.097L31.0423 24.0486L29.9939 25.097C29.656 25.4349 29.1079 25.4349 28.77 25.097C28.7156 25.0426 28.673 24.9814 28.6363 24.9178C28.4439 25.2489 28.4865 25.679 28.77 25.9625C29.1079 26.3004 29.656 26.3004 29.9939 25.9625L31.0423 24.9142L32.0907 25.9625C32.4286 26.3004 32.9767 26.3004 33.3146 25.9625C33.5981 25.679 33.6404 25.2489 33.4483 24.9178C33.4115 24.9814 33.369 25.0426 33.3146 25.097Z" fill="#EF5A9D"/>
<path d="M29.8184 23.6903L30.2511 23.2575L28.77 21.7764C28.7156 21.722 28.6733 21.6608 28.6363 21.5972C28.4439 21.9282 28.4865 22.3584 28.77 22.6419L29.8184 23.6903Z" fill="#EF5A9D"/>
<path d="M33.3146 21.7764L31.8335 23.2575L32.2663 23.6903L33.3146 22.6419C33.5982 22.3584 33.6405 21.9282 33.4484 21.5972C33.4116 21.6608 33.369 21.722 33.3146 21.7764Z" fill="#EF5A9D"/>
<path d="M31.0349 16.9C33.962 16.9 36.3349 14.5271 36.3349 11.6C36.3349 8.67288 33.962 6.29999 31.0349 6.29999C28.1078 6.29999 25.7349 8.67288 25.7349 11.6C25.7349 14.5271 28.1078 16.9 31.0349 16.9Z" fill="white"/>
<path d="M30.4648 14.6C30.229 14.6 30.0025 14.5054 29.8355 14.337L28.0953 12.5826C27.7475 12.2322 27.7475 11.6641 28.0953 11.3134C28.443 10.9627 29.0061 10.9627 29.3538 11.3134L30.4645 12.433L32.7152 10.163C33.0629 9.81233 33.6259 9.81233 33.9737 10.163C34.3214 10.5134 34.3214 11.0815 33.9737 11.4322L31.0938 14.337C30.9271 14.5054 30.7011 14.6 30.4648 14.6Z" fill="white"/>
<path d="M30.4648 14C30.229 14 30.0025 13.9074 29.8355 13.7426L28.0953 12.0255C27.7475 11.6825 27.7475 11.1265 28.0953 10.7833C28.443 10.4401 29.0061 10.4401 29.3538 10.7833L30.4645 11.8791L32.7152 9.6574C33.0629 9.31419 33.6259 9.31419 33.9737 9.6574C34.3214 10.0003 34.3214 10.5564 33.9737 10.8996L31.0938 13.7426C30.9271 13.9074 30.7011 14 30.4648 14Z" fill="#1CAEE4"/>
<path d="M33.975 9.72905L31.0939 12.5632C30.9269 12.7275 30.7008 12.8198 30.4644 12.8198C30.2285 12.8198 30.0019 12.7275 29.8349 12.5632L28.0939 10.8512C28.0846 10.842 28.0785 10.8316 28.0697 10.8222C27.749 11.1659 27.7554 11.6987 28.0939 12.0314L29.8349 13.7434C30.0019 13.9077 30.2285 14 30.4644 14C30.7008 14 30.9269 13.9077 31.0939 13.7434L33.975 10.9093C34.3136 10.5763 34.3199 10.0435 33.9992 9.70001C33.9904 9.70917 33.984 9.71989 33.975 9.72905Z" fill="#1CAEE4"/>
<path d="M31.0349 41.3C33.962 41.3 36.3349 38.9271 36.3349 36C36.3349 33.0729 33.962 30.7 31.0349 30.7C28.1078 30.7 25.7349 33.0729 25.7349 36C25.7349 38.9271 28.1078 41.3 31.0349 41.3Z" fill="white"/>
<path d="M30.4648 39C30.229 39 30.0025 38.9074 29.8355 38.7426L28.0953 37.0253C27.7475 36.6824 27.7475 36.1264 28.0953 35.7832C28.443 35.4401 29.0061 35.4401 29.3538 35.7832L30.4645 36.8789L32.7152 34.6574C33.0629 34.3142 33.6259 34.3142 33.9737 34.6574C34.3214 35.0003 34.3214 35.5563 33.9737 35.8995L31.0938 38.7423C30.9271 38.9074 30.7011 39 30.4648 39Z" fill="white"/>
<path d="M30.4648 38.4C30.229 38.4 30.0025 38.3074 29.8355 38.1426L28.0953 36.4253C27.7475 36.0824 27.7475 35.5264 28.0953 35.1832C28.443 34.8401 29.0061 34.8401 29.3538 35.1832L30.4645 36.2789L32.7152 34.0574C33.0629 33.7142 33.6259 33.7142 33.9737 34.0574C34.3214 34.4003 34.3214 34.9563 33.9737 35.2995L31.0938 38.1423C30.9271 38.3074 30.7011 38.4 30.4648 38.4Z" fill="#1CAEE4"/>
<path d="M33.975 34.129L31.0939 36.9632C30.9269 37.1275 30.7008 37.2198 30.4644 37.2198C30.2285 37.2198 30.0019 37.1275 29.8349 36.9632L28.0939 35.2512C28.0846 35.242 28.0785 35.2316 28.0697 35.2222C27.749 35.5659 27.7554 36.0987 28.0939 36.4314L29.8349 38.1434C30.0019 38.3077 30.2285 38.4 30.4644 38.4C30.7008 38.4 30.9269 38.3077 31.0939 38.1434L33.975 35.3093C34.3136 34.9763 34.3199 34.4435 33.9992 34.1C33.9904 34.1094 33.984 34.1199 33.975 34.129Z" fill="#1CAEE4"/>
</svg>
