<svg width="48" height="48" viewBox="0 0 48 48" fill="none" xmlns="http://www.w3.org/2000/svg">
<path d="M24 48C37.2548 48 48 37.2548 48 24C48 10.7452 37.2548 0 24 0C10.7452 0 0 10.7452 0 24C0 37.2548 10.7452 48 24 48Z" fill="#69B0EE"/>
<path d="M29.9954 19.0721H18.0044V13.2244C18.0049 12.754 18.192 12.303 18.5246 11.9704C18.8572 11.6378 19.3081 11.4507 19.7785 11.4502H28.2213C28.6916 11.4507 29.1426 11.6378 29.4752 11.9704C29.8078 12.303 29.9949 12.754 29.9954 13.2244V19.0721ZM19.9758 17.1H28.024V13.4216H19.9758V17.1Z" fill="#575B6D"/>
<path d="M38.1922 15.6555H9.80775C9.15453 15.6555 8.625 16.185 8.625 16.8382V35.367C8.625 36.0202 9.15453 36.5497 9.80775 36.5497H38.1922C38.8455 36.5497 39.375 36.0202 39.375 35.367V16.8382C39.375 16.185 38.8455 15.6555 38.1922 15.6555Z" fill="#F6B863"/>
<path d="M33.1333 15.6555H35.3672V36.5497H33.1333V15.6555Z" fill="#EAA14E"/>
<path d="M12.6328 15.6555H14.8667V36.5497H12.6328V15.6555Z" fill="#EAA14E"/>
<path d="M23.2962 22.1707C23.2684 22.1943 23.2369 22.1628 23.2017 22.0919C23.2328 22.1156 23.2643 22.1433 23.2962 22.1707Z" fill="#EF5261"/>
<path d="M28.8234 24.0997C28.8234 25.6845 27.7471 27.5374 26.1234 29.0475C25.4773 29.6493 24.7658 30.177 24.0024 30.6206C23.7657 30.4826 23.5332 30.333 23.3086 30.1789C21.0024 28.5862 19.1772 26.1221 19.1772 24.0997C19.1768 23.5543 19.3539 23.0235 19.6817 22.5875C20.0095 22.1516 20.4703 21.8342 20.9945 21.6832C21.2214 21.6182 21.4563 21.585 21.6924 21.5846C22.2378 21.5841 22.7682 21.7627 23.2021 22.0931C23.2377 22.164 23.2692 22.1955 23.2966 22.1719C23.5529 22.3831 23.7646 22.6431 23.9195 22.9369C23.9472 22.992 23.9746 23.0434 24.0024 23.1022V23.1C24.0102 23.0842 24.0181 23.0644 24.026 23.0486C24.0883 22.9096 24.165 22.7775 24.2547 22.6545C24.5816 22.1856 25.0608 21.8442 25.6107 21.6885C25.837 21.62 26.0722 21.5855 26.3086 21.5861C26.9754 21.586 27.6149 21.8508 28.0865 22.3222C28.5581 22.7935 28.8232 23.4329 28.8234 24.0997Z" fill="#EF5261"/>
</svg>
