<svg width="24" height="24" viewBox="0 0 24 24" fill="none" xmlns="http://www.w3.org/2000/svg">
<circle cx="12" cy="12" r="11.5" fill="white" stroke="#C4C4C4"/>
<path fill-rule="evenodd" clip-rule="evenodd" d="M8.13601 7.86399C8.25789 7.74211 8.4232 7.67363 8.59557 7.67363C8.76794 7.67363 8.93324 7.74211 9.05513 7.86399L12.7316 11.5404C12.8535 11.6623 12.9219 11.8276 12.9219 12C12.9219 12.1724 12.8535 12.3377 12.7316 12.4596L9.05513 16.136C8.93324 16.2579 8.76794 16.3264 8.59557 16.3264C8.4232 16.3264 8.25789 16.2579 8.13601 16.136C8.01413 16.0141 7.94566 15.8488 7.94566 15.6765C7.94566 15.5041 8.01413 15.3388 8.13601 15.2169L11.3529 12L8.13601 8.7831C8.01413 8.66122 7.94566 8.49591 7.94566 8.32354C7.94566 8.15118 8.01413 7.98587 8.13601 7.86399Z" fill="black"/>
<path fill-rule="evenodd" clip-rule="evenodd" d="M11.8126 12.4596C11.6907 12.3377 11.6222 12.1724 11.6222 12C11.6222 11.8276 11.6907 11.6623 11.8126 11.5404L15.489 7.86399C15.6109 7.74211 15.7762 7.67363 15.9486 7.67363C16.121 7.67363 16.2863 7.74211 16.4082 7.86399C16.53 7.98587 16.5985 8.15118 16.5985 8.32354C16.5985 8.49591 16.53 8.66122 16.4082 8.7831L13.1913 12L16.4082 15.2169C16.53 15.3388 16.5985 15.5041 16.5985 15.6765C16.5985 15.8488 16.53 16.0141 16.4082 16.136C16.2863 16.2579 16.121 16.3264 15.9486 16.3264C15.7762 16.3264 15.6109 16.2579 15.489 16.136L11.8126 12.4596Z" fill="black"/>
</svg>
