<svg width="14" height="14" viewBox="0 0 14 14" fill="none" xmlns="http://www.w3.org/2000/svg">
<path d="M11.5 7.00011C11.2239 7.00011 11 7.22397 11 7.50012V12.5002C11 12.7764 10.7762 13.0002 10.5 13.0002H1.50001C1.22385 13.0002 0.999994 12.7764 0.999994 12.5002V2.50003C0.999994 2.22387 1.22385 2.00001 1.50001 2.00001H7.50003C7.77618 2.00001 8.00004 1.77615 8.00004 1.49999C8.00004 1.22383 7.77618 1 7.50003 1H1.50001C0.671575 1 0 1.67158 0 2.50003V12.5002C0 13.3286 0.671575 14.0002 1.50001 14.0002H10.5C11.3285 14.0002 12 13.3286 12 12.5002V7.5001C12 7.22397 11.7762 7.00011 11.5 7.00011Z" fill="#2B2B2B"/>
<path d="M13.4395 0.560701C13.0805 0.201633 12.5935 -5.06842e-05 12.0858 7.91063e-06C11.5778 -0.00145696 11.0903 0.200578 10.7323 0.561024L4.14626 7.14661C4.09162 7.20166 4.0504 7.26857 4.02576 7.34211L3.02576 10.3422C2.93849 10.6042 3.08014 10.8873 3.34214 10.9745C3.39297 10.9915 3.4462 11.0001 3.49976 11.0002C3.55343 11.0001 3.60678 10.9915 3.65776 10.9747L6.65777 9.97469C6.73145 9.95008 6.79839 9.90865 6.85327 9.85369L13.4393 3.26758C14.1868 2.52014 14.1869 1.30822 13.4395 0.560701Z" fill="#2B2B2B"/>
</svg>
