<?xml version="1.0" standalone="no"?>
<!DOCTYPE svg PUBLIC "-//W3C//DTD SVG 20010904//EN"
 "http://www.w3.org/TR/2001/REC-SVG-20010904/DTD/svg10.dtd">
<svg version="1.0" xmlns="http://www.w3.org/2000/svg"
 width="312.000000pt" height="208.000000pt" viewBox="0 0 312.000000 208.000000"
 preserveAspectRatio="xMidYMid meet">

<g transform="translate(0.000000,208.000000) scale(0.100000,-0.100000)"
fill="#000000" stroke="none">
<path d="M1020 1498 c-41 -66 -86 -134 -99 -150 -21 -25 -23 -36 -19 -102 4
-91 22 -116 80 -116 l38 0 0 -320 0 -320 50 0 50 0 0 225 0 225 155 0 155 0 0
-195 0 -194 160 -3 c143 -3 163 -1 178 15 10 10 31 19 48 20 21 1 34 11 49 36
28 48 65 72 118 78 38 5 54 1 91 -21 26 -15 46 -31 46 -36 0 -6 15 -10 34 -10
19 0 49 -11 70 -25 28 -19 34 -21 27 -7 -17 32 -48 53 -87 59 -22 3 -56 20
-76 37 l-38 31 0 194 0 195 -32 27 c-31 25 -33 30 -36 108 l-4 81 77 0 c48 0
74 4 70 10 -4 6 -67 10 -156 10 l-149 0 0 135 0 135 -362 0 -363 -1 -75 -121z
m188 -234 c4 -91 -2 -112 -41 -130 -44 -21 -83 -6 -102 41 -15 35 -21 146 -8
158 3 4 38 5 77 3 l71 -3 3 -69z m310 0 c4 -92 -2 -112 -42 -130 -29 -14 -37
-15 -62 -3 -16 8 -34 25 -41 39 -13 26 -18 152 -6 163 3 4 38 5 77 3 l71 -3 3
-69z m312 -10 c0 -87 -8 -107 -49 -124 -24 -9 -35 -9 -57 2 -40 18 -54 53 -54
131 l0 67 80 0 80 0 0 -76z m-115 -364 l-170 -170 -3 62 -3 62 108 108 108
108 65 0 65 0 -170 -170z m73 -107 c-129 -129 -157 -153 -183 -153 -28 0 -17
13 150 180 165 166 180 178 183 154 3 -23 -18 -49 -150 -181z m37 -33 c-66
-66 -122 -120 -125 -120 -2 0 49 54 115 120 66 66 122 120 125 120 2 0 -49
-54 -115 -120z"/>
<path d="M737 434 c-4 -4 -4 -11 -1 -15 3 -5 356 -9 785 -9 620 0 780 3 777
13 -4 9 -170 13 -780 15 -426 1 -777 -1 -781 -4z"/>
</g>
</svg>
