<svg width="48" height="48" viewBox="0 0 48 48" fill="none" xmlns="http://www.w3.org/2000/svg">
<path d="M23.9999 47.9999C37.2547 47.9999 47.9999 37.2547 47.9999 23.9999C47.9999 10.7451 37.2547 0 23.9999 0C10.7451 0 0 10.7451 0 23.9999C0 37.2547 10.7451 47.9999 23.9999 47.9999Z" fill="#88E0E6"/>
<path d="M48 24C48 17.6138 45.505 11.8108 41.4374 7.51091C41.3997 7.47107 41.3619 7.43113 41.3239 7.39148C41.2275 7.29088 41.1301 7.19132 41.0319 7.09242C41.0038 7.0641 40.9759 7.03551 40.9477 7.00729C40.6998 6.75998 40.4463 6.51839 40.1878 6.28214L33.1631 11.9401C32.7337 12.2861 32.2078 12.4586 31.7166 12.4145C29.9128 12.2514 27.0478 11.9129 25.5769 11.7929C24.99 11.7451 24.4613 11.7948 24 11.9298C23.5388 11.7948 23.01 11.7451 22.4232 11.7929C20.9522 11.9129 18.0872 12.2514 16.2835 12.4145C15.7922 12.4586 15.2663 12.2861 14.8369 11.9401L7.81226 6.28204C4.76793 9.065 2.44434 12.6223 1.15088 16.642L12.4079 28.0625C12.569 28.6187 12.9006 29.1813 13.411 29.7187C14.4263 30.7893 16.4869 32.8078 17.746 34.11C18.0872 34.4643 18.2832 34.9828 18.2832 35.5331V47.3129C20.1155 47.7608 22.0297 47.9999 24 47.9999C37.2548 47.9999 48 37.2548 48 24Z" fill="#88E0E6"/>
<path d="M30.059 24.45C29.9156 24.7575 29.6446 24.9881 29.294 25.0988C29.0709 25.1691 28.7615 25.2084 28.3556 25.1409C28.2656 25.125 28.1718 25.1053 28.0725 25.0791C27.735 24.9891 27.3421 24.8297 26.8893 24.5672C26.5106 24.3478 26.025 24.0731 25.5009 23.7797C25.4418 23.7469 25.3828 23.7131 25.3228 23.6803C25.0772 23.5425 24.824 23.4028 24.5718 23.2631C24.3797 23.1572 24.1884 23.0513 24 22.9463C23.0268 22.41 22.1334 21.9225 21.719 21.6966C21.7172 21.6956 21.7144 21.6938 21.7125 21.6938C21.6759 21.6741 21.644 21.6703 21.6206 21.6731C21.6056 21.675 21.5934 21.6797 21.5887 21.6853C21.5756 21.7022 21.584 21.7781 21.66 21.8391L21.7125 21.8813L23.4281 23.2631L24 23.7244L26.8771 26.0419L27.2718 26.3597L28.35 27.2278C29.0596 27.7997 29.4159 28.3219 29.5696 28.77C29.6906 29.1225 29.6868 29.43 29.6306 29.6812C29.6296 29.6812 29.6296 29.6822 29.6296 29.6822C29.5603 29.9897 29.4121 30.2119 29.3184 30.3281C29.249 30.4144 29.1721 30.4894 29.0887 30.554V30.555C28.7184 30.8465 28.215 30.9365 27.6665 30.8306C27.1706 30.7378 26.6381 30.4847 26.1318 30.0769L24.8475 29.0419L24 28.3594L21.1228 26.0419L19.9275 25.0791L19.3612 24.6225C19.2909 24.5663 19.2234 24.5766 19.2169 24.5859C19.2103 24.5934 19.2103 24.6403 19.2534 24.6909C19.3547 24.81 19.4878 24.9628 19.6444 25.1409C19.9406 25.4784 20.3212 25.9069 20.7281 26.3597C21.6262 27.3628 22.6472 28.4906 23.1525 29.0419C23.1984 29.0925 23.2406 29.1375 23.2772 29.1778C23.5593 29.4834 23.7993 29.7684 24 30.0356C24.569 30.794 24.8137 31.41 24.7631 31.9331C24.7284 32.2959 24.5503 32.5978 24.2325 32.8312C24.1547 32.8884 24.0768 32.9362 24 32.9756C22.9134 33.5297 21.8437 32.4112 20.7159 31.2337C20.5931 31.1053 20.4647 30.9703 20.3334 30.8306C19.7287 30.1903 19.0462 29.4469 18.4303 28.77C18.0131 28.3125 17.6269 27.8859 17.3147 27.5409C17.0859 27.2878 16.8909 27.0731 16.7475 26.9147C16.6856 26.8472 16.6022 26.8369 16.5778 26.8537C16.5731 26.8566 16.5675 26.8922 16.5984 26.94C16.9828 27.5222 17.7084 28.6312 18.3703 29.6822V29.6831C18.5587 29.9822 18.7415 30.2765 18.9103 30.5531L18.9112 30.554C19.1081 30.8784 19.2853 31.1775 19.4278 31.4297C19.904 32.2725 20.0484 32.9634 19.8572 33.4847C19.7381 33.8118 19.4869 34.0547 19.1334 34.1868C17.9306 34.6331 17.0981 33.6131 15.4866 31.1775C14.3634 29.4797 13.2825 28.0181 12.3328 26.8144C10.4175 24.3872 9.0347 23.0138 8.90814 22.8891L1.14941 16.6407C2.44316 12.6216 4.76722 9.06474 7.81127 6.28131L14.8369 11.94C15.2662 12.286 15.7922 12.4585 16.2834 12.4144C18.0872 12.2513 20.9522 11.9129 22.4231 11.7929C23.01 11.745 23.5387 11.7947 24 11.9297C25.0172 12.226 25.7015 12.9366 25.9415 13.9238C26.055 14.3925 25.9668 14.8369 25.6875 15.2082C25.5872 15.3403 25.4653 15.4603 25.3237 15.5682C24.9872 15.8241 24.5381 16.0088 24 16.1119C23.7393 16.1625 23.4581 16.1935 23.1581 16.2047C22.7953 16.2188 22.2525 16.26 21.7125 16.3069C21.3712 16.3369 21.0319 16.3688 20.7375 16.3969C21.0084 16.5619 21.3394 16.7653 21.7125 16.9941C22.38 17.4047 23.1797 17.8988 24 18.4106C24.4406 18.6853 24.8878 18.9647 25.3237 19.2394C25.6096 19.4203 25.89 19.5985 26.1618 19.771C27.0834 20.3588 27.8925 20.8875 28.394 21.2419C28.7034 21.4603 28.965 21.6722 29.1843 21.8766C29.3643 22.0444 29.5153 22.2075 29.6428 22.365C30.344 23.2369 30.2906 23.9513 30.059 24.45Z" fill="#FFB84D"/>
<path d="M28.935 30.6609C28.5834 30.8671 28.1418 30.9234 27.6656 30.8315C27.1696 30.7378 26.6381 30.4837 26.1318 30.0768L24.8475 29.0418L24.0197 28.3753L24 28.3593L22.9612 27.5222L19.3612 24.6225C19.2909 24.5662 19.2234 24.5765 19.2159 24.5869C19.2103 24.5934 19.2103 24.6384 19.2534 24.6909C19.7897 25.319 21.2269 26.9203 22.274 28.0762C22.6284 28.4672 22.9378 28.8065 23.1525 29.0418C23.1993 29.0915 23.2406 29.1365 23.2772 29.1768C23.5593 29.4825 23.7993 29.7675 24 30.0346C24.0065 30.0431 24.0131 30.0515 24.0197 30.06V30.0609C24.5747 30.809 24.8128 31.4156 24.7631 31.9331C24.7293 32.2968 24.5503 32.5978 24.2325 32.8312C24.1612 32.8837 24.09 32.9287 24.0187 32.9662C24.0122 32.969 24.0065 32.9728 24 32.9756C22.9134 33.5296 21.8437 32.4112 20.7159 31.2337C20.5931 31.1053 20.4656 30.9712 20.3344 30.8315C20.129 30.614 19.9153 30.3853 19.6978 30.1509C18.8409 29.2275 17.9315 28.2215 17.3147 27.5409C17.0859 27.2878 16.8909 27.0731 16.7475 26.9147C16.6856 26.8472 16.6022 26.8368 16.5778 26.8537C16.5731 26.8565 16.5666 26.8912 16.5984 26.94C17.2209 27.8831 18.7406 30.21 19.4278 31.4296C19.904 32.2724 20.0484 32.9634 19.8572 33.4846C19.7381 33.8118 19.4869 34.0556 19.1334 34.1868C17.9306 34.6331 17.0981 33.6131 15.4866 31.1775C12.0966 26.055 9.09845 23.0756 8.90814 22.889L1.14941 16.6406C1.84222 14.4881 2.83128 12.4688 4.0669 10.6294L24 26.6859L24.0197 26.7018L25.0387 27.5222L25.7259 28.0762L28.3021 30.1509L28.935 30.6609Z" fill="#FFB84D"/>
<path d="M46.8506 16.6407L39.0919 22.8891C38.9025 23.0756 35.9034 26.055 32.5135 31.1775C31.7044 32.4009 31.0913 33.2662 30.5297 33.7687C29.9728 34.2675 29.4657 34.409 28.8666 34.1868C28.5132 34.0547 28.2619 33.8119 28.1428 33.4847C27.9516 32.9634 28.096 32.2725 28.5722 31.4297C28.7147 31.1775 28.8919 30.8784 29.0888 30.554C29.2585 30.2775 29.4413 29.9822 29.6297 29.6822C30.2916 28.6312 31.0172 27.5222 31.4016 26.94C31.4325 26.8922 31.4269 26.8566 31.4222 26.8537C31.3978 26.8369 31.3144 26.8472 31.2525 26.9147C31.1091 27.0731 30.9141 27.2878 30.6853 27.5409C30.3732 27.8859 29.9869 28.3125 29.5697 28.77C28.9538 29.4469 28.2713 30.1903 27.6666 30.8306C27.5353 30.9703 27.4069 31.1053 27.2841 31.2337C26.1563 32.4112 25.0866 33.5297 24 32.9756C23.9232 32.9362 23.8454 32.8884 23.7675 32.8312C23.4497 32.5978 23.2716 32.2959 23.2369 31.9331C23.1863 31.41 23.431 30.794 24 30.0356C24.2007 29.7684 24.4407 29.4834 24.7229 29.1778C24.7594 29.1375 24.8016 29.0925 24.8475 29.0419C25.3529 28.4906 26.3738 27.3628 27.2719 26.3597C27.6788 25.9069 28.0594 25.4784 28.3557 25.1409C28.5113 24.9638 28.6444 24.8109 28.7447 24.6928C28.7457 24.6919 28.7457 24.6919 28.7466 24.6909C28.7897 24.6403 28.7897 24.5934 28.7832 24.5859C28.7813 24.5831 28.7728 24.5794 28.7597 24.5794C28.7335 24.5766 28.6866 24.5841 28.6388 24.6225L28.0725 25.0791L26.8772 26.0419L24 28.3594L23.1526 29.0419L21.8682 30.0769C21.3619 30.4847 20.8294 30.7378 20.3335 30.8306C19.7851 30.9365 19.2816 30.8465 18.9113 30.554C18.8279 30.4894 18.751 30.4144 18.6816 30.3281C18.5879 30.2119 18.4398 29.9897 18.3704 29.6822C18.3132 29.4309 18.3085 29.1234 18.4304 28.77C18.5841 28.3219 18.9404 27.7997 19.6501 27.2278L20.7282 26.3597L21.1229 26.0419L24 23.7244L24.5719 23.2631L25.3229 22.6584L25.7504 22.3134L26.34 21.8391C26.416 21.7781 26.4244 21.7022 26.4113 21.6853C26.4066 21.6797 26.3944 21.675 26.3794 21.6731C26.3541 21.6703 26.3204 21.675 26.281 21.6966C26.161 21.7622 26.0007 21.8494 25.8094 21.9535C25.6641 22.0341 25.5 22.1231 25.3229 22.2197C24.9319 22.4344 24.4754 22.6847 24 22.9463C23.8116 23.0513 23.6204 23.1572 23.4282 23.2631C22.5676 23.7394 21.7069 24.2213 21.1107 24.5672C20.6579 24.8297 20.2651 24.9891 19.9276 25.0791C19.8282 25.1053 19.7344 25.125 19.6444 25.1409C19.2385 25.2084 18.9291 25.1691 18.706 25.0988C18.3554 24.9881 18.0844 24.7575 17.941 24.45C17.6166 23.7506 17.6419 22.6275 19.606 21.2419C19.9304 21.0131 20.3832 20.7113 20.9119 20.3672C21.1632 20.2041 21.4322 20.0306 21.7126 19.8516C22.4307 19.3922 23.2247 18.8935 24 18.4106C24.4538 18.1275 24.901 17.85 25.3238 17.5885C25.8366 17.2716 26.3129 16.9791 26.7169 16.7307C26.9175 16.6078 27.1013 16.4953 27.2625 16.3969C27.1313 16.3847 26.9907 16.3707 26.8454 16.3575C26.3438 16.3107 25.7822 16.2619 25.3238 16.231C25.1438 16.2197 24.9797 16.2103 24.8419 16.2047C24.5419 16.1935 24.2607 16.1625 24 16.1119C23.236 15.9647 22.6501 15.6544 22.3126 15.2082C22.0332 14.8369 21.9451 14.3925 22.0585 13.9238C22.1101 13.711 22.1822 13.5113 22.2751 13.3257C22.6088 12.6497 23.2022 12.1622 24 11.9297C24.4613 11.7947 24.99 11.745 25.5769 11.7929C27.0479 11.9129 29.9128 12.2513 31.7166 12.4144C32.2078 12.4585 32.7338 12.286 33.1631 11.94L40.1887 6.28131C43.2328 9.06474 45.5569 12.6216 46.8506 16.6407Z" fill="#703700"/>
<path d="M46.8505 16.6406L39.0918 22.889C38.9014 23.0756 35.9033 26.055 32.5133 31.1775C31.7043 32.4009 31.0912 33.2662 30.5296 33.7687C29.9727 34.2674 29.4655 34.409 28.8665 34.1868C28.513 34.0556 28.2618 33.8118 28.1427 33.4846C27.9515 32.9634 28.0958 32.2724 28.5721 31.4296C29.2593 30.21 30.779 27.8831 31.4015 26.94C31.4333 26.8912 31.4268 26.8565 31.4221 26.8537C31.3977 26.8368 31.3143 26.8472 31.2524 26.9147C31.109 27.0731 30.914 27.2878 30.6852 27.5409C30.0683 28.2215 29.159 29.2275 28.3021 30.1509C28.0846 30.3853 27.8709 30.614 27.6655 30.8315C27.5343 30.9712 27.4068 31.1053 27.284 31.2337C26.1627 32.4046 25.0987 33.5165 24.0187 32.9849C24.0121 32.9821 24.0065 32.9793 23.9999 32.9756C23.9231 32.9362 23.8452 32.8884 23.7674 32.8312C23.4496 32.5978 23.2706 32.2968 23.2368 31.9331C23.1862 31.41 23.4309 30.794 23.9999 30.0346C24.0065 30.0262 24.013 30.0178 24.0196 30.0084C24.2155 29.7487 24.4499 29.4721 24.7227 29.1768C24.7593 29.1365 24.8005 29.0915 24.8474 29.0418C25.0621 28.8065 25.3715 28.4672 25.7259 28.0762C26.7721 26.9212 28.2074 25.3228 28.7446 24.6928C28.7455 24.6919 28.7455 24.6918 28.7465 24.6909C28.7896 24.6384 28.7896 24.5934 28.784 24.5869C28.7821 24.584 28.7727 24.5803 28.7596 24.5793C28.7324 24.5765 28.6865 24.585 28.6387 24.6225L25.0387 27.5222L24.0196 28.3434L23.9999 28.3593L23.1524 29.0418L21.8681 30.0768C21.3618 30.4837 20.8302 30.7378 20.3343 30.8315C19.8581 30.9234 19.4165 30.8671 19.0649 30.6609L19.6978 30.1509L22.274 28.0762L22.9612 27.5222L23.9999 26.6859L24.0196 26.67L29.0708 22.6012L29.7458 22.0575L33.5474 18.9956L43.933 10.6294C45.1686 12.4688 46.1577 14.4881 46.8505 16.6406Z" fill="#703700"/>
<path d="M30.5296 33.2831V33.7687L30.5305 47.1008C28.454 47.6868 26.264 47.9999 23.9999 47.9999C22.0302 47.9999 20.1149 47.7627 18.2831 47.3146V35.533C18.2831 34.9827 18.0871 34.4643 17.7459 34.1099C16.4868 32.8077 14.4262 30.7893 13.4109 29.7187C12.5109 28.7709 12.164 27.7443 12.3328 26.8143C12.4078 26.399 12.5849 26.0034 12.8624 25.6415C13.1559 25.259 13.5571 25.049 14.0221 25.034C14.7721 25.0106 15.6131 25.4896 16.3856 26.3784C16.7737 26.8246 17.5181 27.5962 18.0534 28.1437C17.7862 26.0896 17.1421 21.0065 17.0231 19.1409C16.8702 16.7428 17.7299 16.0181 18.4771 15.8325C18.8071 15.7509 19.1568 15.8175 19.4634 16.0209C19.8459 16.2759 20.3474 16.8665 20.5565 18.2269C20.6446 18.795 20.773 19.5656 20.9118 20.3672C21.1659 21.8465 21.4518 23.4328 21.5643 24.0543C21.5727 24.0975 21.5905 24.1284 21.6084 24.1453C21.6187 24.1565 21.6299 24.1622 21.6374 24.1622C21.659 24.1622 21.7124 24.1087 21.7124 24.0112V15.42C21.7124 14.3644 21.958 13.7194 22.2749 13.3256L22.2759 13.3247C22.709 12.7866 23.2752 12.7209 23.5199 12.7219C24.5643 12.7209 25.3227 13.8309 25.3237 15.3609V19.2394L25.3227 22.2197V24.0553C25.3227 24.1443 25.3724 24.1903 25.3846 24.1903C25.3949 24.1903 25.4305 24.1603 25.4427 24.0965C25.4596 24.0065 25.4793 23.8996 25.5008 23.7796C25.5683 23.399 25.6555 22.8834 25.7502 22.3134C25.7699 22.1962 25.7896 22.0753 25.8093 21.9534C25.9283 21.2306 26.053 20.4525 26.1618 19.7709C26.2724 19.0744 26.3643 18.4781 26.414 18.1481C26.4955 17.5969 26.5958 17.1262 26.7168 16.7306C26.7571 16.5975 26.8002 16.4737 26.8452 16.3575C27.0524 15.8287 27.3102 15.4706 27.6271 15.2625C27.9318 15.0628 28.2786 15.0112 28.6593 15.1125C30.059 15.4837 29.8461 17.1206 29.6211 18.8531C29.5058 19.7475 29.3408 20.8537 29.1843 21.8765C29.0718 22.6012 28.964 23.2837 28.8796 23.8181C28.8318 24.1181 28.7905 24.3768 28.7596 24.5793C28.7549 24.6046 28.7511 24.63 28.7474 24.6534C28.7455 24.6675 28.7446 24.6806 28.7446 24.6928C28.7465 24.764 28.7821 24.8156 28.8055 24.8231C28.8111 24.825 28.843 24.8071 28.8599 24.7537C29.0305 24.2221 29.3249 23.31 29.6427 22.365C29.969 21.3956 30.3186 20.3925 30.5811 19.7334C30.9393 18.8334 31.3874 18.2878 31.9124 18.1097C32.2433 17.9972 32.5893 18.0412 32.9146 18.2334C34.0161 18.8906 33.7433 20.1778 32.8574 22.9603C30.9955 28.814 30.5558 33.0187 30.5296 33.2831Z" fill="#FFDCA8"/>
<path d="M30.5295 33.2831V33.7687L30.5304 47.1008C28.4595 47.6849 26.276 47.998 24.0186 47.9999V32.9662L24.0195 30.06V12.8119C24.7976 13.1053 25.3226 14.0878 25.3235 15.3609L25.3226 24.0553C25.3226 24.1453 25.3732 24.1912 25.3854 24.1912C25.3939 24.1912 25.4295 24.1622 25.4426 24.0965C25.6592 22.9519 26.2564 19.2028 26.4129 18.1491C26.6473 16.5694 27.0326 15.6534 27.627 15.2625C27.9317 15.0609 28.2785 15.0113 28.6592 15.1125C30.0588 15.4838 29.846 17.1206 29.621 18.8531C29.4776 19.9641 29.2582 21.404 29.0707 22.6012C29.0004 23.0512 28.9348 23.4665 28.8795 23.8181C28.8317 24.1181 28.7904 24.3769 28.7595 24.5794C28.7548 24.6047 28.751 24.63 28.7473 24.6534C28.7454 24.6675 28.7445 24.6806 28.7445 24.6928C28.7463 24.764 28.782 24.8156 28.8054 24.8231C28.811 24.825 28.842 24.8081 28.8598 24.7537C29.0482 24.165 29.3904 23.1075 29.7457 22.0575C30.041 21.1875 30.3467 20.3222 30.581 19.7334C30.9392 18.8334 31.3873 18.2878 31.9123 18.1097C32.2432 17.9972 32.5901 18.0403 32.9145 18.2334C33.237 18.4266 33.4423 18.6731 33.5473 18.9956C33.8032 19.7737 33.4835 20.9934 32.8573 22.9603C30.9954 28.814 30.5548 33.0187 30.5295 33.2831Z" fill="#FFDCA8"/>
</svg>
