<svg width="24" height="25" viewBox="0 0 24 25" fill="none" xmlns="http://www.w3.org/2000/svg">
<path d="M18 3.09521H6C5.20435 3.09521 4.44129 3.41129 3.87868 3.97389C3.31607 4.5365 3 5.29957 3 6.09521V18.0952C3 18.8909 3.31607 19.6539 3.87868 20.2165C4.44129 20.7791 5.20435 21.0952 6 21.0952H18C18.7956 21.0952 19.5587 20.7791 20.1213 20.2165C20.6839 19.6539 21 18.8909 21 18.0952V6.09521C21 5.29957 20.6839 4.5365 20.1213 3.97389C19.5587 3.41129 18.7956 3.09521 18 3.09521ZM6 5.09521H18C18.2652 5.09521 18.5196 5.20057 18.7071 5.38811C18.8946 5.57564 19 5.83 19 6.09521V14.4552L15.8 11.7252C15.3042 11.3173 14.6821 11.0942 14.04 11.0942C13.3979 11.0942 12.7758 11.3173 12.28 11.7252L5 17.7952V6.09521C5 5.83 5.10536 5.57564 5.29289 5.38811C5.48043 5.20057 5.73478 5.09521 6 5.09521Z" fill="#232535"/>
<path d="M8 10.0952C8.82843 10.0952 9.5 9.42364 9.5 8.59521C9.5 7.76679 8.82843 7.09521 8 7.09521C7.17157 7.09521 6.5 7.76679 6.5 8.59521C6.5 9.42364 7.17157 10.0952 8 10.0952Z" fill="#232535"/>
</svg>
