<svg width="20" height="20" viewBox="0 0 20 20" fill="none" xmlns="http://www.w3.org/2000/svg">
<path d="M5.15591 6.66675H14.8434L14.2642 15.9376C14.2377 16.3609 14.0509 16.7581 13.7417 17.0485C13.4325 17.3388 13.0242 17.5003 12.6001 17.5001H7.40008C6.97596 17.5003 6.56771 17.3388 6.25851 17.0485C5.94931 16.7581 5.76242 16.3609 5.73591 15.9376L5.15591 6.66675ZM15.8334 4.16675V5.83342H4.16675V4.16675H6.66675V3.33341C6.66675 2.89139 6.84234 2.46746 7.1549 2.1549C7.46746 1.84234 7.89139 1.66675 8.33342 1.66675H11.6667C12.1088 1.66675 12.5327 1.84234 12.8453 2.1549C13.1578 2.46746 13.3334 2.89139 13.3334 3.33341V4.16675H15.8334ZM8.33342 4.16675H11.6667V3.33341H8.33342V4.16675Z" fill="#232535"/>
</svg>
